<svg id="Layer_1" data-name="Layer 1" xmlns="http://www.w3.org/2000/svg" width="166" height="53" viewBox="0 0 166 53">
  <defs>
    <style>
      .cls-1 {
        fill: #fd8f1f;
      }

      .cls-2 {
        fill: #13548d;
      }

      .cls-3 {
        fill: #fff;
      }
    </style>
  </defs>
  <title>Logo New</title>
  <g>
    <g>
      <path class="cls-1" d="M55.45,6.32c-.77,0-.91.45-.91,1.16v6.36a3.22,3.22,0,0,1-1.41,2.78,6.34,6.34,0,0,1-2.05.85c-.16,0-.27,0-.3,0s0-.08.08-.13a3.18,3.18,0,0,0,1.44-1.7,5.07,5.07,0,0,0,.27-1.74V6h3.15v.29Z"/>
      <path class="cls-1" d="M66.33,6.27c-.78,0-.91.45-.91,1.16v5.75h2.35v.66h-2.4v.37A3.11,3.11,0,0,1,64,17a6.2,6.2,0,0,1-2,.83c-.14,0-.24,0-.27,0s0-.08.05-.13a3,3,0,0,0,1.44-1.7,6,6,0,0,0,.3-2.09H62.06a6.36,6.36,0,0,1-3.81-1.11,3.37,3.37,0,0,1-1.47-2.81C56.78,7.51,59,6,62.41,6h4.18v.3ZM58.7,9.92a3.16,3.16,0,0,0,3,3.34h1.73V6.93a4.42,4.42,0,0,0-1.31-.19C60.11,6.74,58.7,7.8,58.7,9.92Z"/>
      <path class="cls-1" d="M72,6.37c-.78,0-.91.48-.91,1.19v5.62h3.57v.66H66.7v-.66h2.37V6.11h3.17v.26ZM69.82,3.59a1,1,0,1,1-1-1A1,1,0,0,1,69.82,3.59Zm2.5,0a1,1,0,1,1-1-1A1,1,0,0,1,72.32,3.59Z"/>
      <path class="cls-1" d="M89.09,6.29c-.83,0-.91.48-.91,1.19v3a3.17,3.17,0,0,1-1,2.33,3.31,3.31,0,0,1-2.45,1,3.76,3.76,0,0,1-1.44-.32,1.74,1.74,0,0,1-1.07-1,2.75,2.75,0,0,1-2.34,1.3,3,3,0,0,1-2.51-1.12A3.25,3.25,0,0,1,75,13.84H73.57v-.66H74a2.36,2.36,0,0,0,1.6-.61,3.21,3.21,0,0,0,.8-2.07V6.56h3.14v.26h-.24c-.82,0-1,.48-1,1.19v3.71a1.49,1.49,0,0,0,1.5,1.48,1.51,1.51,0,0,0,1.46-1.48V6.29h3.17v.27h-.26c-.78,0-.91.18-.91.9v4.42a1.43,1.43,0,0,0,1.44,1.27,1.45,1.45,0,0,0,1.49-1.45V6h3.15v.26Z"/>
      <path class="cls-1" d="M44.65,7.51C44.65,9,43.43,9.69,41,9.69a5.54,5.54,0,0,1-1.8-.25c-.14-.09-.19-.27-.17-.53s.1-.43.25-.4a6.63,6.63,0,0,0,1.64.18A4.33,4.33,0,0,0,43.5,8l-.06-.22c0-.08-.09-.11-.22-.11a2.64,2.64,0,0,0-.78.18,3,3,0,0,1-.8.17c-.61,0-.91-.32-.91-.86a2.3,2.3,0,0,1,.64-1.5,1.86,1.86,0,0,1,1.4-.74c.32,0,.48.2.48.61a1.42,1.42,0,0,1-.08.52,2.78,2.78,0,0,0-.1.55l.15.08C44.17,6.67,44.65,7,44.65,7.51Zm-2.26-.76V6.13a1,1,0,0,0-.84.43c0,.14.17.22.49.22Z"/>
      <path class="cls-1" d="M48.62,1.39V13.84h2v-11c0-.72.14-1.17.91-1.17h.27V1.39Z"/>
      <path class="cls-1" d="M48.62,13.18H33a2.23,2.23,0,0,1-1.92-1,4,4,0,0,1-.61-2.35c0-1.91.77-3.13,2.56-3.13,1.25,0,2.16.43,2.26,1.83h.35c0-1.24,0-1.72-.45-2.12a3.77,3.77,0,0,0-2.54-.58A4.25,4.25,0,0,0,29.57,7a3.93,3.93,0,0,0-1.12,2.84,3.76,3.76,0,0,0,1.12,2.78,4.15,4.15,0,0,0,3.06,1.19h16Z"/>
    </g>
    <polygon class="cls-2" points="99.05 43.45 14.86 43.45 25.56 19.52 111.08 19.52 99.05 43.45"/>
    <polygon class="cls-1" points="123.81 24.84 117.18 38.11 111.39 26.5 98.14 53 84.89 53 111.39 0 123.81 24.84"/>
    <polygon class="cls-2" points="137.89 26.5 151.14 53 137.89 53 131.27 39.75 124.64 53 111.39 53 118.01 39.77 124.64 26.5 137.89 0 151.14 0 137.89 26.5"/>
    <g>
      <path class="cls-3" d="M27.18,25.76H37.71a2.09,2.09,0,0,1,1.72,1.07,3.31,3.31,0,0,1,.44,1.57v.09l0,.07H28.41v2.33h9a2.33,2.33,0,0,1,2.34,2l.08.7V35.9a2.78,2.78,0,0,1-1.13,2.31,2.86,2.86,0,0,1-1,.37l0,0H27.2a2.09,2.09,0,0,0-.59-.15,2.29,2.29,0,0,1-1.26-1.15A3.52,3.52,0,0,1,25,36l0,0H36.47V33.71h-9a2.33,2.33,0,0,1-2.34-2L25,31.05V28.4a2.77,2.77,0,0,1,1.18-2.33A2,2,0,0,1,27.18,25.76Z"/>
      <path class="cls-3" d="M41.23,25.69H56.06l.06.06v2.72l-.06.06H50.35v10l-.06.06H47l-.06-.06v-10H41.23l-.06-.06V25.75Z"/>
      <path class="cls-3" d="M59.86,25.76h10a2.3,2.3,0,0,1,2.31,1.79,3.53,3.53,0,0,1,.14.88v7.5a2.75,2.75,0,0,1-1.18,2.34,2.37,2.37,0,0,1-1.24.33h-10a2.31,2.31,0,0,1-2.34-2l-.08-.7v-7.5a2.72,2.72,0,0,1,1.15-2.3A2.37,2.37,0,0,1,59.86,25.76Zm1,2.82V36h8.06V28.58Z"/>
      <path class="cls-3" d="M73.68,25.69H86.2a2.28,2.28,0,0,1,2.26,1.93,2.15,2.15,0,0,1,.12.73v2.53a2.78,2.78,0,0,1-1.08,2.26,2.31,2.31,0,0,1-1.27.39H84.41l4.61,5v0H84.47L77.36,31v0h7.79V28.53H77.08v0l0,10,0,0H73.68l-.05-.06V25.75Z"/>
    </g>
  </g>
</svg>
